grf
version=1
nRows=20
nColumns=46
inDegrees=yes
endheader
time	ground_force_1_vx	ground_force_1_vy	ground_force_1_vz	ground_force_1_px	ground_force_1_py	ground_force_1_pz	ground_moment_1_mx	ground_moment_1_my	ground_moment_1_mz	ground_force_2_vx	ground_force_2_vy	ground_force_2_vz	ground_force_2_px	ground_force_2_py	ground_force_2_pz	ground_moment_2_mx	ground_moment_2_my	ground_moment_2_mz	ground_force_3_vx	ground_force_3_vy	ground_force_3_vz	ground_force_3_px	ground_force_3_py	ground_force_3_pz	ground_moment_3_mx	ground_moment_3_my	ground_moment_3_mz	ground_force_4_vx	ground_force_4_vy	ground_force_4_vz	ground_force_4_px	ground_force_4_py	ground_force_4_pz	ground_moment_4_mx	ground_moment_4_my	ground_moment_4_mz	ground_force_5_vx	ground_force_5_vy	ground_force_5_vz	ground_force_5_px	ground_force_5_py	ground_force_5_pz	ground_moment_5_mx	ground_moment_5_my	ground_moment_5_mz
0.000000	0.000000	0.000000	0.000000	0.000000	0.000000	0.000000	0.000000	0.000000	0.000000	0.000000	0.000000	0.000000	0.000000	0.000000	0.000000	0.000000	0.000000	0.000000	0.000000	0.000000	0.000000	0.000000	0.000000	0.000000	0.000000	0.000000	0.000000	5.323350	613.670141	-160.338919	0.157759	0.000000	-0.860803	0.000000	4.500280	0.000000	-8.606190	606.757124	166.853939	0.198057	0.000000	-1.589891	-0.000000	-3.739866	-0.000000
0.000500	0.000000	0.000000	0.000000	0.000000	0.000000	0.000000	0.000000	0.000000	0.000000	0.000000	0.000000	0.000000	0.000000	0.000000	0.000000	0.000000	0.000000	0.000000	0.000000	0.000000	0.000000	0.000000	0.000000	0.000000	0.000000	0.000000	0.000000	5.355242	613.770302	-160.339148	0.157763	0.000000	-0.860819	0.000000	4.498788	0.000000	-8.601241	606.887414	166.848654	0.198037	0.000000	-1.589873	-0.000000	-3.740292	-0.000000
0.001000	0.000000	0.000000	0.000000	0.000000	0.000000	0.000000	0.000000	0.000000	0.000000	0.000000	0.000000	0.000000	0.000000	0.000000	0.000000	0.000000	0.000000	0.000000	0.000000	0.000000	0.000000	0.000000	0.000000	0.000000	0.000000	0.000000	0.000000	5.386889	613.870226	-160.339649	0.157766	0.000000	-0.860835	0.000000	4.497259	0.000000	-8.596554	607.017240	166.843458	0.198017	0.000000	-1.589856	-0.000000	-3.740734	-0.000000
0.001500	0.000000	0.000000	0.000000	0.000000	0.000000	0.000000	0.000000	0.000000	0.000000	0.000000	0.000000	0.000000	0.000000	0.000000	0.000000	0.000000	0.000000	0.000000	0.000000	0.000000	0.000000	0.000000	0.000000	0.000000	0.000000	0.000000	0.000000	5.418184	613.969601	-160.340440	0.157769	0.000000	-0.860850	0.000000	4.495701	0.000000	-8.592115	607.146204	166.838372	0.197998	0.000000	-1.589839	-0.000000	-3.741189	-0.000000
0.002000	0.000000	0.000000	0.000000	0.000000	0.000000	0.000000	0.000000	0.000000	0.000000	0.000000	0.000000	0.000000	0.000000	0.000000	0.000000	0.000000	0.000000	0.000000	0.000000	0.000000	0.000000	0.000000	0.000000	0.000000	0.000000	0.000000	0.000000	5.449035	614.068141	-160.341535	0.157772	0.000000	-0.860865	0.000000	4.494119	0.000000	-8.587907	607.273939	166.833416	0.197978	0.000000	-1.589821	-0.000000	-3.741652	-0.000000
0.002500	0.000000	0.000000	0.000000	0.000000	0.000000	0.000000	0.000000	0.000000	0.000000	0.000000	0.000000	0.000000	0.000000	0.000000	0.000000	0.000000	0.000000	0.000000	0.000000	0.000000	0.000000	0.000000	0.000000	0.000000	0.000000	0.000000	0.000000	5.479367	614.165593	-160.342942	0.157774	0.000000	-0.860880	0.000000	4.492518	0.000000	-8.583921	607.400111	166.828612	0.197958	0.000000	-1.589804	-0.000000	-3.742121	-0.000000
0.003000	0.000000	0.000000	0.000000	0.000000	0.000000	0.000000	0.000000	0.000000	0.000000	0.000000	0.000000	0.000000	0.000000	0.000000	0.000000	0.000000	0.000000	0.000000	0.000000	0.000000	0.000000	0.000000	0.000000	0.000000	0.000000	0.000000	0.000000	5.509119	614.261746	-160.344667	0.157777	0.000000	-0.860894	0.000000	4.490899	0.000000	-8.580153	607.524412	166.823976	0.197939	0.000000	-1.589787	-0.000000	-3.742590	-0.000000
0.003500	0.000000	0.000000	0.000000	0.000000	0.000000	0.000000	0.000000	0.000000	0.000000	0.000000	0.000000	0.000000	0.000000	0.000000	0.000000	0.000000	0.000000	0.000000	0.000000	0.000000	0.000000	0.000000	0.000000	0.000000	0.000000	0.000000	0.000000	5.538246	614.356429	-160.346710	0.157778	0.000000	-0.860908	0.000000	4.489266	0.000000	-8.576603	607.646565	166.819521	0.197920	0.000000	-1.589770	-0.000000	-3.743055	-0.000000
0.004000	0.000000	0.000000	0.000000	0.000000	0.000000	0.000000	0.000000	0.000000	0.000000	0.000000	0.000000	0.000000	0.000000	0.000000	0.000000	0.000000	0.000000	0.000000	0.000000	0.000000	0.000000	0.000000	0.000000	0.000000	0.000000	0.000000	0.000000	5.566715	614.449504	-160.349064	0.157780	0.000000	-0.860921	0.000000	4.487620	0.000000	-8.573267	607.766325	166.815259	0.197900	0.000000	-1.589753	-0.000000	-3.743508	-0.000000
0.004500	0.000000	0.000000	0.000000	0.000000	0.000000	0.000000	0.000000	0.000000	0.000000	0.000000	0.000000	0.000000	0.000000	0.000000	0.000000	0.000000	0.000000	0.000000	0.000000	0.000000	0.000000	0.000000	0.000000	0.000000	0.000000	0.000000	0.000000	5.594502	614.540854	-160.351721	0.157781	0.000000	-0.860934	0.000000	4.485961	0.000000	-8.570142	607.883479	166.811198	0.197882	0.000000	-1.589736	-0.000000	-3.743943	-0.000000
0.005000	0.000000	0.000000	0.000000	0.000000	0.000000	0.000000	0.000000	0.000000	0.000000	0.000000	0.000000	0.000000	0.000000	0.000000	0.000000	0.000000	0.000000	0.000000	0.000000	0.000000	0.000000	0.000000	0.000000	0.000000	0.000000	0.000000	0.000000	5.621587	614.630378	-160.354668	0.157782	0.000000	-0.860946	0.000000	4.484288	0.000000	-8.567232	607.997840	166.807348	0.197863	0.000000	-1.589720	-0.000000	-3.744356	-0.000000
0.005500	0.000000	0.000000	0.000000	0.000000	0.000000	0.000000	0.000000	0.000000	0.000000	0.000000	0.000000	0.000000	0.000000	0.000000	0.000000	0.000000	0.000000	0.000000	0.000000	0.000000	0.000000	0.000000	0.000000	0.000000	0.000000	0.000000	0.000000	5.647955	614.717983	-160.357893	0.157783	0.000000	-0.860957	0.000000	4.482597	0.000000	-8.564548	608.109238	166.803715	0.197845	0.000000	-1.589704	-0.000000	-3.744743	-0.000000
0.006000	0.000000	0.000000	0.000000	0.000000	0.000000	0.000000	0.000000	0.000000	0.000000	0.000000	0.000000	0.000000	0.000000	0.000000	0.000000	0.000000	0.000000	0.000000	0.000000	0.000000	0.000000	0.000000	0.000000	0.000000	0.000000	0.000000	0.000000	5.673590	614.803591	-160.361384	0.157783	0.000000	-0.860968	0.000000	4.480883	0.000000	-8.562103	608.217530	166.800301	0.197827	0.000000	-1.589688	-0.000000	-3.745103	-0.000000
0.006500	0.000000	0.000000	0.000000	0.000000	0.000000	0.000000	0.000000	0.000000	0.000000	0.000000	0.000000	0.000000	0.000000	0.000000	0.000000	0.000000	0.000000	0.000000	0.000000	0.000000	0.000000	0.000000	0.000000	0.000000	0.000000	0.000000	0.000000	5.698479	614.887140	-160.365138	0.157783	0.000000	-0.860979	0.000000	4.479145	0.000000	-8.559914	608.322601	166.797101	0.197809	0.000000	-1.589673	-0.000000	-3.745435	-0.000000
0.007000	0.000000	0.000000	0.000000	0.000000	0.000000	0.000000	0.000000	0.000000	0.000000	0.000000	0.000000	0.000000	0.000000	0.000000	0.000000	0.000000	0.000000	0.000000	0.000000	0.000000	0.000000	0.000000	0.000000	0.000000	0.000000	0.000000	0.000000	5.722602	614.968596	-160.369154	0.157783	0.000000	-0.860988	0.000000	4.477380	0.000000	-8.557991	608.424361	166.794106	0.197791	0.000000	-1.589658	-0.000000	-3.745737	-0.000000
0.007500	0.000000	0.000000	0.000000	0.000000	0.000000	0.000000	0.000000	0.000000	0.000000	0.000000	0.000000	0.000000	0.000000	0.000000	0.000000	0.000000	0.000000	0.000000	0.000000	0.000000	0.000000	0.000000	0.000000	0.000000	0.000000	0.000000	0.000000	5.745940	615.047953	-160.373431	0.157782	0.000000	-0.860998	0.000000	4.475591	0.000000	-8.556344	608.522745	166.791301	0.197774	0.000000	-1.589643	-0.000000	-3.746010	-0.000000
0.008000	0.000000	0.000000	0.000000	0.000000	0.000000	0.000000	0.000000	0.000000	0.000000	0.000000	0.000000	0.000000	0.000000	0.000000	0.000000	0.000000	0.000000	0.000000	0.000000	0.000000	0.000000	0.000000	0.000000	0.000000	0.000000	0.000000	0.000000	5.768470	615.125233	-160.377963	0.157781	0.000000	-0.861006	0.000000	4.473780	0.000000	-8.554983	608.617700	166.788665	0.197757	0.000000	-1.589629	-0.000000	-3.746254	-0.000000
0.008500	0.000000	0.000000	0.000000	0.000000	0.000000	0.000000	0.000000	0.000000	0.000000	0.000000	0.000000	0.000000	0.000000	0.000000	0.000000	0.000000	0.000000	0.000000	0.000000	0.000000	0.000000	0.000000	0.000000	0.000000	0.000000	0.000000	0.000000	5.790174	615.200479	-160.382738	0.157780	0.000000	-0.861015	0.000000	4.471952	0.000000	-8.553912	608.709193	166.786171	0.197740	0.000000	-1.589615	-0.000000	-3.746472	-0.000000
0.009000	0.000000	0.000000	0.000000	0.000000	0.000000	0.000000	0.000000	0.000000	0.000000	0.000000	0.000000	0.000000	0.000000	0.000000	0.000000	0.000000	0.000000	0.000000	0.000000	0.000000	0.000000	0.000000	0.000000	0.000000	0.000000	0.000000	0.000000	5.811043	615.273738	-160.387733	0.157778	0.000000	-0.861023	-0.000000	4.470112	0.000000	-8.553135	608.797216	166.783788	0.197724	0.000000	-1.589602	-0.000000	-3.746665	-0.000000
0.009500	0.000000	0.000000	0.000000	0.000000	0.000000	0.000000	0.000000	0.000000	0.000000	0.000000	0.000000	0.000000	0.000000	0.000000	0.000000	0.000000	0.000000	0.000000	0.000000	0.000000	0.000000	0.000000	0.000000	0.000000	0.000000	0.000000	0.000000	5.831070	615.345049	-160.392919	0.157776	0.000000	-0.861030	-0.000000	4.468265	0.000000	-8.552654	608.881786	166.781484	0.197708	0.000000	-1.589589	-0.000000	-3.746836	-0.000000
